<svg
  width="163"
  height="145"
  viewBox="0 0 163 145"
  xmlns="http://www.w3.org/2000/svg"
>
  <style>
    :root { fill: black; }
    @media (prefers-color-scheme: dark) {
      :root { fill: white; }
    }
  </style>
  <path d="M90.1846 120.971H100.233L124.299 145.001H103.153L98.4658 140.313H79.7627C70.0108 130.546 53.0898 113.716 53.0898 113.716H44.5107L63.9844 133.189H21.0244L32.8311 144.996H15.2656L0 129.73L31.7129 98.0186L67.2217 98.0078L90.1846 120.971ZM118.433 44.8486L116.716 51.252L126.064 67.4482C122.485 80.7797 116.368 103.849 116.368 103.849L120.658 111.279L127.787 84.6816V84.6768L149.264 121.882L153.589 105.751L162.369 120.961L156.78 141.813L113.458 130.204L95.6963 99.458L104.104 68.0879L99.0801 59.3877L107.86 26.5322L118.433 44.8486ZM100.475 43.3223L82.7285 74.0781L51.3574 82.4863L46.333 91.1855L13.4883 100.012L24.0605 81.6953L30.4648 79.9785L39.8135 63.7832C53.145 60.2187 76.1836 53.9805 76.1836 53.9805L80.4727 46.5498L53.8838 53.6758L75.3574 16.4785L59.2266 20.7979L68.0068 5.58789L88.8604 0L100.475 43.3223ZM53.8799 53.6836L53.875 53.6787L53.8838 53.6758L53.8799 53.6836Z"/>
</svg>
